<?xml version="1.0" encoding="utf-8"?>
<!-- Generator: Adobe Illustrator 22.1.0, SVG Export Plug-In . SVG Version: 6.00 Build 0)  -->
<svg version="1.1" id="Capa_1" xmlns="http://www.w3.org/2000/svg" xmlns:xlink="http://www.w3.org/1999/xlink" x="0px" y="0px"
	 width="360px" height="106px" viewBox="0 0 360 106" style="enable-background:new 0 0 360 106;" xml:space="preserve">
<style type="text/css">
	.st0{fill:#C10230;}
	.st1{fill:#1A1A1A;}
</style>
<g>
	<path class="st0" d="M189.4,80.4c-20.9,14.4-38.2,1.5-53.8-5.5c-4.7-2.1-9.3-3.7-13.8-3.8l0-0.8h1c2.7,0,4.9-2.1,5-4.9V22.2
		c-0.1-2.7-2.3-4.9-5-4.9h-1l0-0.8h17.1l0,0.8h-1c-2.7,0-4.9,2.2-5,4.9v45.1c0,2.2,0.1,4.1,3.8,5.4c31.9,11.1,39.5,12.1,52.4,7.2
		L189.4,80.4z"/>
	<path class="st0" d="M209.2,43.8c0,17-12.3,28.4-30,28.4s-30-11.4-30-28.4c0-17,12.3-28.4,30-28.4S209.2,26.8,209.2,43.8
		 M203.1,43.8c0-15.6-9.6-26.1-24-26.1c-14.4,0-24,10.4-24,26.1c0,15.6,9.6,26.1,24,26.1C193.5,69.9,203.1,59.5,203.1,43.8"/>
	<path class="st0" d="M230.9,16.5c10.9,0,16.9,5.2,17,13c0,6.6-4.2,10.6-8.6,11.9c8.3,1.2,13.4,7.3,13.4,15.1
		c0,8.8-6.6,14.7-18.2,14.7h-19l0-0.8h1c2.7,0,4.9-2.2,5-4.9V22.1c-0.1-2.7-2.3-4.8-5-4.8h-1l0-0.8L230.9,16.5z M234.1,68.3
		c8,0,12.6-4.5,12.6-12.4c0-11.7-10.1-13.6-17.6-13.6l0-0.7c4.8,0,12.9-1.4,12.9-11.4c0-7.1-4-11.1-11.4-11.1h-4.1v49.3H234.1z"/>
	<path class="st0" d="M319.9,43.8c0,17-12.3,28.4-30,28.4c-17.7,0-30-11.4-30-28.4c0-17,12.3-28.4,30-28.4
		C307.6,15.4,319.9,26.8,319.9,43.8 M313.9,43.8c0-15.6-9.6-26.1-24-26.1c-14.4,0-24,10.4-24,26.1c0,15.6,9.6,26.1,24,26.1
		C304.3,69.9,313.9,59.5,313.9,43.8"/>
	<path class="st0" d="M351.7,48.1c3.1,2.9,3.9,6.4,3.9,9.5c0,8.6-5.6,14.6-14.6,14.6c-3.8,0-10.1-1.1-13.2-4.3
		c-0.6-2.4-0.3-7.4,0.9-10.9h0.7c-0.8,8,4.3,13.2,11.2,12.8c5.7-0.3,10.5-4.2,10.5-10.5c0-3.1-1.1-5.5-3.1-7.3L333,38.3
		c-3.2-2.9-4.2-6.6-4.2-9.7c0-6.6,4.8-13.2,13.7-13.2c2,0,4.6,0.3,6.7,0.8h3.1v9.6h-0.8c0-5-3.9-8-8.8-8c-5.7,0-9.6,4.2-9.6,9
		c0,2,0.7,4.9,3.1,7.2L351.7,48.1z"/>
	<path class="st0" d="M18.3,43.9c44,29.4,61.6,59,61.6,59C36.9,61.7,4.4,54.9,4.4,54.9L18.3,43.9z"/>
	<path class="st1" d="M35.8,42c35.1,35.5,46,61.6,46,61.6C52.3,59.3,20.4,42.3,20.4,42.3S78.6,0.9,80.9,2.5L35.8,42z"/>
	<path class="st1" d="M88.9,14.9c-3.9,4.7-2.3,9.3-0.6,13.9c-1-0.3-2-0.6-3-0.8c-0.5-2.7-1.4-5.3-0.3-8.2c-2.1-0.5-3,1.3-3.9,3
		c-0.1-1.2-0.2-2.4-0.4-3.6C82.5,17.4,85.2,16,88.9,14.9"/>
	<path class="st1" d="M59.1,43.1c-4.4-1.8-11.3-2.2-17.5-1.8l-1,0.9c0.4,0.4,0.8,0.8,1.2,1.2c6.1-0.7,12-0.2,16.5,0.8
		c-2.9,4.1-2.5,7.8-2.1,9.6c-1.7-0.6-3.5-1-5.4-1.2c2.3,2.5,4.5,5.2,6.7,7.9c1.7-1.2,3.6-2.2,5.4-2.8c-2-1.7-4.1-2.9-6.3-3.7
		c2.1-6.5,4.3-6.6,6.6-5c-2.4,7.6,5.1,10,7.5,12.3c-1.2-2.8-6.9-8.4-2.1-9.4c8.1,2.2,9.7,0.2,12.9-0.7c-14.8,0.8-23.4-11-8.4-13.7
		c0-1,14.5,3.1,20.4,5.4c-2.4-1.4-4.4-2.8-5.1-4.3c0.4,0.3,1,0,1.7-0.9c-2.8-1.2-3.6-2.6-8.3-3c0.2,0.6,0.3,1.2,0.5,1.8
		c-5.4-1.3-10.8-2.6-16.2-3.9c1.9,1.1,3,2.3,2.8,3.7C64.1,38.5,61.1,40.8,59.1,43.1"/>
	<path class="st1" d="M112.8,43.1c-4.4-1.7-3.9-0.1-16.3-7.2c-4.5-3.8-10.1-6.9-17-9.3c-0.1-4.9-1.7-9.7-2.4-14.5
		c-5.1,4.1-7.2,7.4-10.6,13.5c-0.8-0.7-2.8-1.4-5.7-1.8l-3.5,3.2c5.6,1.3,11,3.9,14.2,6.6c-1.8-2.3-3.8-4.5-3.6-7.7
		c2.2-4.7,4.7-6.4,7.1-8.2c-1.7,3.1-3.2,5.2-4.8,8.3c3.5,0,2.5,2.9,3.6,3.7c-0.7-0.7,0.2-2.5-0.1-4.4c-0.2-2.2,0.7-4.5,2.7-6.7
		c1.1,2.7,1.8,5.3,1.5,7.9c0.2,2.1-0.3,3.9-2.6,5.3c8.6-1.2,15.1,0.3,18.5,5.7c4.6,2.3,9.2,4.6,13.7,7c-1.2,0.7-1.5,0.8-1.9,1.4
		c1.6,2.1,2.8,3,3.9,3.2c-1.5,4.6-4.9,7.4-6.8,7.8c-16.2,2.4-26.3,4.8-35.1,17.2c0.6,0.9,1.2,1.8,1.8,2.6
		c6.3-11.6,17-16.6,34.1-17.5C106.7,58.1,116.7,45.5,112.8,43.1"/>
	<path class="st1" d="M200.1,88.4h-3.7V79c0-0.1-0.1-0.2-0.2-0.2h-1.4c-0.1,0-0.2,0.1-0.2,0.2v10.8c0,0.1,0.1,0.2,0.2,0.2h5.2
		c0.1,0,0.2-0.1,0.2-0.2v-1.2C200.3,88.5,200.2,88.4,200.1,88.4"/>
	<path class="st1" d="M218.2,78.8h-1.4c-0.1,0-0.2,0.1-0.2,0.2v10.8c0,0.1,0.1,0.2,0.2,0.2h1.4c0.1,0,0.2-0.1,0.2-0.2V79
		C218.4,78.9,218.3,78.8,218.2,78.8"/>
	<path class="st1" d="M240.9,83c0.4-0.5,0.6-1,0.6-1.6c0-0.7-0.3-1.3-0.8-1.8c-0.5-0.5-1.2-0.8-1.9-0.8h-3.4c-0.1,0-0.2,0.1-0.2,0.2
		v10.8c0,0.1,0.1,0.2,0.2,0.2l3.8,0c0.9-0.1,1.7-0.5,2.3-1.1c0.8-0.8,1.1-1.7,1.1-2.7c0-1-0.4-1.9-1.1-2.7
		C241.2,83.2,241,83.1,240.9,83 M239.4,82.1c-0.1,0.1-0.3,0.2-0.5,0.2h-2v-2h1.9c0.2,0,0.4,0.1,0.6,0.3c0.2,0.2,0.3,0.4,0.3,0.7
		C239.7,81.7,239.6,81.9,239.4,82.1 M236.9,83.9h1.8c0.6,0,1.1,0.2,1.5,0.6c0.4,0.4,0.6,1,0.6,1.6c0,0.6-0.2,1.2-0.6,1.6
		c-0.4,0.4-0.9,0.6-1.5,0.6h-1.8V83.9z"/>
	<path class="st1" d="M263.3,86.1c0.3-0.1,0.7-0.4,1.1-0.8c0.8-0.8,1.1-1.7,1.1-2.7c0-1-0.4-1.9-1.1-2.7c-0.6-0.6-1.4-1-2.4-1.2H259
		c-0.1,0-0.2,0.1-0.2,0.2v10.8c0,0.1,0.1,0.2,0.2,0.2h1.4c0.1,0,0.2-0.1,0.2-0.2v-3.3h1l2.2,3.4c0,0.1,0.1,0.1,0.2,0.1h1.6
		c0.1,0,0.1,0,0.2-0.1c0-0.1,0-0.1,0-0.2L263.3,86.1z M263.8,82.6c0,0.7-0.2,1.2-0.6,1.6c-0.4,0.4-0.9,0.6-1.5,0.6h-1.1v-4.5h1.1
		c0.6,0,1.1,0.2,1.5,0.6C263.6,81.4,263.8,82,263.8,82.6"/>
	<path class="st1" d="M288.1,78.8h-5.9c-0.1,0-0.2,0.1-0.2,0.2v10.8c0,0.1,0.1,0.2,0.2,0.2h5.9c0.1,0,0.2-0.1,0.2-0.2v-1.2
		c0-0.1-0.1-0.2-0.2-0.2h-4.3v-3.2h4.3c0.1,0,0.2-0.1,0.2-0.2v-1.2c0-0.1-0.1-0.2-0.2-0.2h-4.3v-3.2h4.3c0.1,0,0.2-0.1,0.2-0.2V79
		C288.3,78.9,288.2,78.8,288.1,78.8"/>
	<path class="st1" d="M309.5,86.1c0.3-0.1,0.7-0.4,1.1-0.8c0.8-0.8,1.1-1.7,1.1-2.7c0-1-0.4-1.9-1.1-2.7c-0.6-0.6-1.4-1-2.4-1.2
		h-3.1c-0.1,0-0.2,0.1-0.2,0.2v10.8c0,0.1,0.1,0.2,0.2,0.2h1.4c0.1,0,0.2-0.1,0.2-0.2v-3.3h1l2.2,3.4c0,0.1,0.1,0.1,0.2,0.1h1.6
		c0.1,0,0.1,0,0.2-0.1c0-0.1,0-0.1,0-0.2L309.5,86.1z M306.7,80.4h1.1c0.6,0,1.1,0.2,1.5,0.6c0.4,0.4,0.6,1,0.6,1.6
		c0,0.7-0.2,1.2-0.6,1.6c-0.4,0.4-0.9,0.6-1.5,0.6h-1.1V80.4z"/>
	<path class="st1" d="M332.2,75.2H330c-0.1,0-0.1,0-0.2,0.1l-1.6,1.8c-0.1,0.1-0.1,0.1,0,0.2c0,0.1,0.1,0.1,0.2,0.1h1.4
		c0,0,0.1,0,0.1,0l2.4-1.8c0.1-0.1,0.1-0.1,0.1-0.2C332.4,75.3,332.3,75.2,332.2,75.2"/>
	<path class="st1" d="M329.8,78.8h-1.4c-0.1,0-0.2,0.1-0.2,0.2v10.8c0,0.1,0.1,0.2,0.2,0.2h1.4c0.1,0,0.2-0.1,0.2-0.2V79
		C330,78.9,329.9,78.8,329.8,78.8"/>
	<path class="st1" d="M351.4,78.9c0-0.1-0.1-0.1-0.2-0.1H350c-0.1,0-0.2,0.1-0.2,0.1l-4,10.8c0,0.1,0,0.1,0,0.2
		c0,0.1,0.1,0.1,0.2,0.1h1.4c0.1,0,0.2-0.1,0.2-0.1l1.6-4.4h2.7l1.6,4.4c0,0.1,0.1,0.1,0.2,0.1h1.4c0.1,0,0.1,0,0.2-0.1
		c0-0.1,0-0.1,0-0.2L351.4,78.9z M351.4,83.9h-1.5l0.8-2.1L351.4,83.9z"/>
</g>
</svg>
